<svg xmlns="http://www.w3.org/2000/svg" viewBox="0 0 300 185"><defs><linearGradient id="wc-a" x1="50%" x2="50%" y1="0%" y2="100%"><stop offset="0%" stop-color="#5290EA"/><stop offset="100%" stop-color="#3263BD"/></linearGradient></defs><rect width="300" height="185" fill="url(#wc-a)" rx="30"/><path fill="#FFF" fill-rule="evenodd" d="M61.439 56.74c48.613-47.613 127.509-47.613 176.122 0l5.854 5.733a6.01 6.01 0 010 8.67l-20.026 19.602a3.16 3.16 0 01-4.403 0l-8.059-7.889c-33.93-33.212-88.924-33.212-122.854 0l-8.633 8.452a3.16 3.16 0 01-4.403 0L54.01 71.705a6.01 6.01 0 010-8.67l7.429-6.294zm217.387 40.498l17.821 17.445a6.01 6.01 0 010 8.67l-80.368 78.683a6.319 6.319 0 01-8.806 0L149.1 143.773a1.58 1.58 0 00-2.2 0l-58.372 57.263a6.319 6.319 0 01-8.806 0L.353 122.353a6.01 6.01 0 010-8.67L18.174 96.238a6.319 6.319 0 018.806 0l58.373 57.263a1.58 1.58 0 002.2 0l58.372-57.263a6.319 6.319 0 018.806 0l58.373 57.263a1.58 1.58 0 002.2 0l58.373-57.263a6.319 6.319 0 018.149 1z"/></svg>
